<svg xmlns="http://www.w3.org/2000/svg" fill="none" viewBox="0 0 839 369">
    <g filter="url(#a)">
        <path fill="#1E1E1E"
            d="M54.795 220.137c-.141 3.788 1.56 13.465 2.427 17.831-.682 1.064-2.407 3.513-3.856 4.801-1.448 1.289.712 5.42 1.973 7.325l31.816-.578 8.12 12.831 504.537-9.163s129.364 2.908 138.748-2.52c9.385-5.428 11.7-20.551 11.7-20.551l13.139-.238c2.71-.312 9.875-3.386 16.847-13.187 8.715-12.25 6.317-42.962 4.659-47.4-1.658-4.439-9.799-18.486-12.369-29.742-2.056-9.006-4.771-35.927-5.871-48.261-2.29-.66-7.869-1.96-11.863-1.888-3.995.073-20.811-2.426-28.72-3.684-24.787-13.92-92.181-44.538-163.462-55.651-89.102-13.891-141.73-2.42-172.618 4.712-30.889 7.133-88.677 38.412-106.389 47.408-14.169 7.197-29.096 9.378-34.788 9.57-10.059.97-36.629 3.661-62.441 6.654-25.812 2.992-61.547 12.508-76.188 16.892l-21.571-.922c-1.75.119-5.773.578-7.86 1.457-2.087.879-2.743 3.379-2.81 4.52l.296 16.292c-2.166 1.354-8.43 7.619-16.163 21.849-9.666 17.787-5.672 35.064-5.558 41.371.115 6.306-1.558 15.537-1.735 20.272Z" />
        <path fill="#D6DFDD"
            d="M57.222 237.968c-.868-4.366-2.568-14.043-2.427-17.831.177-4.735 1.85-13.966 1.735-20.272-.114-6.307-4.108-23.584 5.558-41.371 7.732-14.231 13.997-20.495 16.163-21.849l-.295-16.292c.066-1.141.722-3.641 2.809-4.52 2.087-.879 6.11-1.338 7.86-1.457l21.571.922c14.641-4.384 50.376-13.9 76.188-16.892 25.812-2.993 52.382-5.683 62.441-6.655 5.692-.19 20.619-2.372 34.788-9.569 17.712-8.996 75.5-40.275 106.389-47.408 30.888-7.133 83.516-18.603 172.618-4.712 71.281 11.113 138.675 41.73 163.462 55.65 7.909 1.26 24.725 3.758 28.72 3.685 3.994-.072 9.573 1.228 11.863 1.888 1.1 12.334 3.815 39.255 5.871 48.261 2.57 11.256 10.711 25.303 12.369 29.742 1.658 4.438 4.056 35.15-4.659 47.4-6.972 9.8-14.137 12.875-16.847 13.187l-13.139.238c-.813-1.299-1.98-4.8-.153-8.409 2.284-4.51 8.764-52.995-33.687-74.568-42.45-21.572-86.737 14.982-92.366 37.953-5.628 22.972-5.003 42.939-5.447 47.415-.356 3.582-1.636 6.426-2.232 7.401l-379.354-2.048c-.919-2.349-2.526-8.839-1.605-16.006 1.152-8.958 4.177-73.941-54.417-87.072-58.595-13.131-101.73 43.381-90.542 80.504 7.66 25.413 10.375 32.978 10.988 33.974l.144-.003c.002.152-.041.171-.144.003l-46.106.837c-1.26-1.905-3.421-6.036-1.973-7.325 1.449-1.288 3.174-3.737 3.856-4.801Z" />
        <path fill="url(#b)"
            d="m330.213 70.652-.86 24.988c103.776-3.111 318.525-9.622 347.314-10.776-11.098-17.673-45.508-30.718-90.118-40.948-44.61-10.23-115.657-14.197-165.977-5.923-40.256 6.62-74.907 24.668-90.359 32.66Z" />
        <path fill="url(#c)"
            d="M623.603 141.611c-35.33 23.143-39.758 68.805-37.556 88.743l.206 11.299c9.555.265 29.03.525 30.482-.553 1.453-1.078 1.52-8.002 1.372-11.328-.384-1.834-.727-8.189.97-18.945 2.122-13.444 3.551-36.077 24.014-52.746 20.464-16.67 59.222-24.734 85.929-1.561 26.708 23.173 24.495 60.541 20.673 67.182-3.823 6.641-.044 12.092 5.948 9.092 5.991-3 8.122-1.462 12.05-2.322 3.927-.86 16.851-12.923 16.937-22.651.087-9.728 1.033-29.986 1.22-34.195.186-4.209-1.902-3.383-4.071-7.023-2.169-3.641-4.367-8.859-7.142-16.957-2.776-8.099-5.552-30.655-5.781-43.268-.229-12.614-2.331-12.575-4.997-14.63-2.666-2.054-8.165-.903-15.265-1.037-7.1-.134-17.138-2.843-27.931-3.699-10.793-.855-25.758 14.663-34.406 16.134-6.918 1.178-48.956 1.328-69.111 1.255-3.402.851-8.156 2.514.043 2.365 10.248-.186 59.384-1.341 69.111-1.255 9.728.087 31.243-2.144 43.316-3.152 12.074-1.008 20.244.158 26.364 4.253 6.12 4.094 4.782 17.262 6.062 29.856 1.281 12.595 7.864 27.722 7.912 30.349.048 2.628 2.188 4.692.095 5.256-2.092.564-1.858-1.018-4.797-3.593-2.938-2.575-16.387-19.417-35.044-33.536-18.657-14.119-62.441-22.262-106.603 6.667Z" />
        <path fill="#A2A2A2"
            d="M52.642 245.246c.046 2.511 1.497 5.084 1.497 5.084 15.781.502 22.929.372 27.344.292 5.518-.1 16.837.745 18.117-1.118 1.281-1.863 1.131-5.131-2.724-14.787-3.856-9.657-8.284-36.389-3.286-50.674 4.998-14.286 9.844-27.4 35.348-41.533 25.505-14.132 67.366-10.516 87.816 15.492 20.451 26.007 20.768 57.979 18.269 65.122-1.999 5.714-.639 13.067.291 16.03l375.418 2.382c3.25.467 9.382-1.537 7.907-13.287-1.844-14.687 2.194-38.418 12.897-57.013s56.522-43.086 91.945-17.705c35.422 25.38 27.378 65.103 26.647 68.271-.354 1.536-1.752-.115-2.464 4.104s.908 6.555 3.545 7.033c2.638.478 11.276-1.519 15.982-2.919 4.707-1.4 6.771-3.54 9.093-5.948 2.322-2.408 5.59-10.023 4.48-8.873-2.322 2.408-3.876 2.952-7.452 4.458-3.913 1.648-7.315 2.499-12.045 2.585-4.155.075-1.688-15.595-2.366-23.995-.678-8.399-2.119-20.348-8.889-31.266-5.158-8.318-25.343-29.886-54.831-32.505-29.489-2.619-52.582 9.074-70.568 31.891-16.188 20.535-15.228 58.896-16.748 62.078-1.215 2.545-5.204 2.898-7.047 2.756-118.299-.48-355.163-1.646-356.23-2.468-1.333-1.027-1.892-2.857-1.681-5.752.21-2.896 7.339-30.1-10.286-59.747-17.624-29.647-54.141-42.916-87.954-37.57-33.813 5.346-63.03 32.163-67.144 66.147-4.114 33.985 10.84 49.485 7.997 49.537l-14.978.272c-6.41.117-9.226-1.41-14.22-1.319-2.35.043-3.725 2.434-3.68 4.945Z" />
        <path fill="url(#d)"
            d="M78.632 136.104c1.29-1.338 13.216-10.492 16.068-12.647 2.202-1.663 11.758-5.297 15.638-7.381-5.431-1.267-29.465-1.305-31.008.563-1.543 1.868-2.814 4.257-.698 19.465Z" />
        <path fill="url(#e)" stroke="#D7E0DE" stroke-width="1.051"
            d="m330.949 97.192.01.536.535-.02 174.695-6.585c3.077 3.64 9.191 12.572 11.411 20.425 2.092 7.403 3.754 19.422 4.799 31.752 1.044 12.323 1.469 24.909 1.1 33.429-.74 17.065-4.964 44.716-5.679 48.662-.18.993-.327 1.785-.483 2.427-.157.644-.315 1.102-.503 1.438-.181.324-.388.533-.66.684-.283.158-.666.269-1.225.341 0 0-.037.004-.139.007a138.218 138.218 0 0 1-1.724.02c-1.148.005-2.787.006-4.866.003-4.159-.008-10.076-.032-17.342-.069-14.532-.076-34.461-.205-56.519-.36-44.117-.309-96.75-.72-131.76-1.004l-.04-.001-.039.006c-1.293.185-4.55-.022-6.966-2.352-.34-.328-.802-.99-1.351-2.012-.542-1.009-1.149-2.332-1.787-3.946-1.277-3.227-2.672-7.597-3.93-12.909-2.517-10.624-4.482-24.999-3.865-41.519.619-16.563 1.716-32.076 3.202-44.209.743-6.066 1.582-11.279 2.504-15.35.928-4.098 1.925-6.961 2.947-8.397.819-1.152 2.871-2.971 5.741-5.195 2.849-2.207 6.443-4.768 10.286-7.397 7.337-5.019 15.56-10.272 21.187-13.76l.461 25.355Z" />
        <path fill="url(#f)"
            d="M304.03 86.377c2.06-2.35 17.339-10.216 24.72-13.855-.231 6.576-.743 19.887-.941 20.521-.249.793-.774.803-1.563.817-.788.014-18.662.076-20.243-.158-1.582-.234-4.224-.975-4.506-2.021-.282-1.046-.043-2.365 2.533-5.303Z" />
        <path fill="url(#g)"
            d="M321.34 84.223c-.975-7.342 4.534-10.86 7.411-11.7l-1.009 16.841c.467 1.569.873 4.663-1.233 4.491-2.632-.215-3.951-.454-5.169-9.632Z" />
        <path fill="url(#h)"
            d="m68.197 241.983 9.46-.172c-3.32-9.14-8.759-33.593-3.95-58.285 6.011-30.865 26.327-41.222 34.645-46.368 8.318-5.145 21.62-10.907 33.125-14.271 11.505-3.363 19.924-2.99 23.861-3.324 3.937-.335 9.723-.177 12.881.028 3.158.206 13.167 1.339 16.593 1.802 3.426.464 2.379.745 10.005.87 7.625.124 27.611.55 32.078.469 4.467-.081 26.264-1.266 29.938-1.595 3.674-.33 5.217-2.198 7.042-3.02 1.826-.822 4.444-1.395 7.86-1.457 3.416-.062 50.435-1.967 53.325-2.02 2.891-.052 2.862-1.629-.028-1.576-2.891.052-45.194 1.083-53.33 1.757-8.137.673-108.753 4.078-114.807 3.662-6.053-.416-4.558-4.912-.119-6.57 4.439-1.658 55.098-5.732 58.505-6.32 2.725-.47 8.127-1.199 10.487-1.504 3.392-1.376 8.131-3.881-.053-2.891-10.229 1.237-51.414 5.928-68.996 7.562-17.583 1.634-68.667 11.236-92.156 49.515-18.79 30.624-12.073 68.565-6.366 83.708Z" />
        <path fill="url(#i)"
            d="M95.076 145.252c-32.164 23.716-25.204 74.06-17.703 96.268l9.46-.172c-1.639-3.388-3.077-10.196-5.623-20.139-2.547-9.943-1.81-27.305-.606-33.373 1.204-6.068 10.732-45.934 63.364-57.141 52.633-11.208 74.319 10.479 89.903 33.977 15.584 23.497 5.508 57.205 9.836 63.961 13.154.549 16.847 1.271 28.221.276-.129-7.095.296-18.459-.721-39.68-1.27-26.527-28.429-60.066-65.643-68.327-37.214-8.262-70.281-5.296-110.487 24.35Z" />
        <path stroke="url(#j)" stroke-width="1.051"
            d="M480.959 34.008c-15.77.111-57.023 1.023-87.095 9.73-28.362 8.214-52.798 21.376-63.12 27.171l-1.391 24.735" />
        <path fill="url(#k)"
            d="M366.704 55.798c14.414-5.309 35.997-12.745 45.507-15.021-4.788 1.752-14.22 7.303-13.746 10.239.592 3.669 21.906 4.86 34.811 6.202 12.905 1.343 51.041 2.49 67.1 3.776 16.058 1.285 52.197 8.252 57.214 9.475 5.017 1.224 10.019 1.659 11.037-.2 1.017-1.859-4.004-3.345-11.128-4.792-7.124-1.448-6.631-3.297-.043-2.365 6.589.931 33.043 10.177 48.571 11.21 15.528 1.032 30.187-2.389 32.795-3.488 2.609-1.099.464-3.425-.095-5.255s-6.937-5.657-14.892-9.456c-7.955-3.798-7.454-5.122-.039-2.102 7.416 3.02 48.997 20.14 52.876 31.11-7.358.133-232.612 6.239-343.392 9.653l1.506-18.428c1.912-.823 8.77-3.419 14.648-3.946 7.349-.66 17.583-1.634 33.111-.602 15.528 1.033 13.736 3.694 21.863 2.495 8.127-1.2 21.467-4.859 20.913-6.426-.555-1.567-10.273-1.128-21.061-1.72-10.788-.593-34.336-6.737-37.503-7.468-3.168-.731-18.07 3.745-.053-2.89Z" />
        <path fill="url(#l)" stroke="url(#m)" stroke-width=".526"
            d="M733.312 73.752c.142-3.788 5.662-21.132 8.405-29.331.671-1.677 1.58-5.654-.148-8.146-2.159-3.115-2.914-1.262-18.92.343s-38.633.44-40.435 2.575c-1.441 1.708-.524 4.916.115 6.306-.816 3.345-2.328 10.768-1.854 13.703.474 2.936 2.873 3.803 4.013 3.87l37.625 16.403c2.395 1.622 7.757 4.486 10.043 2.973 2.857-1.892.979-3.961 1.156-8.696Z" />
        <path fill="#F7F6F4"
            d="M728.368 80.224c-1.487-.814-8.223-4.057-11.405-5.576-.043-2.365 9.527 3.507 10.292 2.179.764-1.329-8.228-4.32-7.731-5.906.497-1.586 4.697-1.925 8.61-3.574 3.913-1.648 4.415-2.971 5.652-7.2 1.238-4.228 2.303-3.459 1.314-.023-.989 3.435-1.987 6.345-3.258 8.733-1.271 2.39-.951 5.538-.622 9.212.33 3.674-.994 3.172-2.852 2.155Z" />
        <path fill="url(#n)" stroke="url(#o)" stroke-width=".526"
            d="m495.441 33.745 7.53 56.117-3.647.066-9.986.182h-.035l-.035.01c-.764.228-1.917.424-2.893.29-.487-.067-.91-.213-1.22-.458-.303-.239-.516-.584-.572-1.094-.037-.336-.019-1.29.041-2.742.059-1.44.159-3.345.281-5.563l.187-3.363c.212-3.78.454-8.114.663-12.463.275-5.707.491-11.441.503-15.978.007-2.268-.038-4.241-.153-5.764a18.914 18.914 0 0 0-.23-1.939c-.095-.516-.215-.934-.376-1.204-.47-.79-1.452-1.547-2.663-2.239-1.222-.696-2.715-1.347-4.255-1.91a43.91 43.91 0 0 0-5.209-1.547l9.952-.18 12.117-.22Z" />
        <path fill="url(#p)" stroke="url(#q)" stroke-width=".526"
            d="M509.047 89.752h.036l.034.008c.168.043.504.078.995.099.484.02 1.095.028 1.8.026 1.409-.006 3.179-.051 5.017-.112 1.567-.052 3.183-.114 4.666-.172 1.827-.07 3.449-.134 4.52-.158l-.014-.085a7.422 7.422 0 0 0-.138-.59 30.26 30.26 0 0 0-.568-1.818c-.499-1.47-1.222-3.42-2.091-5.693-.923-2.417-2.009-5.193-3.162-8.144-1.018-2.604-2.09-5.344-3.149-8.092-2.259-5.857-4.463-11.746-5.975-16.404-.756-2.328-1.341-4.356-1.673-5.922-.166-.782-.271-1.456-.301-2-.029-.529.01-.982.175-1.284.44-.804 1.244-1.479 2.223-2.044.983-.566 2.166-1.036 3.395-1.42a33.55 33.55 0 0 1 3.873-.939l-22.2-.74 8.039 55.566 4.498-.082Z" />
        <circle cx="695.097" cy="216.755" r="65.706" fill="#373938" transform="rotate(-1.04 695.097 216.755)" />
        <path fill="url(#r)"
            d="M646.051 177.558c-2.825-4.075-.177-9.722 4.998-14.285 5.174-4.563 17.74-10.311 26.321-12.57 10.726-2.824 21.5-3.019 31.796-.578 10.297 2.442 20.47 7.091 30.54 17.058 10.171 10.067 16.192 23.101 19.283 34.085 3.091 10.985 1.848 29.408-2.132 41.835-3.98 12.427-12.758 21.261-22.619 28.274-4.931 3.507-14.315 7.884-18.782 7.965-4.467.081-8.648 1.471-11.562.21-2.915-1.262-2.724-5.208-2.504-7.578.22-2.37 4.659-4.028 9.862-7.014 5.203-2.986 13.55-6.555 19.221-12.703 9.322-10.107 12.261-19.675 13.957-27.592 1.696-7.917-.41-22.599-4.256-31.73-3.846-9.13-11.591-15.824-18.256-20.96-6.665-5.137-17.764-8.352-27.773-9.485-10.01-1.132-20.726 2.217-27.229 6.015-5.202 3.038-8.914 6.12-10.12 7.281-1.393.463-7.92 5.848-10.745 1.772Z" />
        <path fill="#D9D9D9" fill-rule="evenodd"
            d="M696.014 267.209c27.865-.506 50.043-23.506 49.537-51.37-.506-27.865-23.505-50.044-51.37-49.538-27.865.506-50.043 23.505-49.537 51.37.506 27.865 23.505 50.044 51.37 49.538Zm-6.075-67.211c.717 1.478 2.935 1.01 2.994-.632l.825-22.968a1.576 1.576 0 0 0-1.901-1.599L681 177.089a1.576 1.576 0 0 0-1.093 2.231l10.032 20.678Zm10.681-.016c-.826 1.421-3.003.788-2.939-.854l.894-22.965a1.577 1.577 0 0 1 2.016-1.453l10.655 3.096a1.576 1.576 0 0 1 .923 2.306l-11.549 19.87Zm4.339 1.905c-.71 1.483 1.039 2.926 2.36 1.948l18.474-13.672c.824-.61.856-1.831.065-2.484l-8.558-7.061a1.576 1.576 0 0 0-2.426.536l-9.915 20.733Zm7.079 9.173c-1.617.294-2.549-1.773-1.258-2.79l18.052-14.224a1.578 1.578 0 0 1 2.414.591l4.56 10.115a1.577 1.577 0 0 1-1.156 2.2l-22.612 4.108Zm.693 4.974c-1.605.351-1.67 2.618-.087 3.06l22.135 6.183a1.576 1.576 0 0 0 2-1.474l.317-11.091a1.577 1.577 0 0 0-1.913-1.586l-22.452 4.908Zm-2.761 10.246c-1.226-1.095-.168-3.1 1.428-2.707l22.315 5.494a1.577 1.577 0 0 1 1.018 2.267l-5.175 9.815a1.577 1.577 0 0 1-2.445.441l-17.141-15.31Zm-3.249 3.668c-1.27-1.042-3.089.312-2.455 1.828l8.869 21.202a1.577 1.577 0 0 0 2.396.657l8.9-6.626a1.577 1.577 0 0 0 .059-2.484l-17.769-14.577Zm-9.425 4.16c.068-1.642 2.288-2.098 2.998-.615l9.918 20.732a1.577 1.577 0 0 1-1.106 2.225l-10.869 2.231a1.576 1.576 0 0 1-1.892-1.61l.951-22.963Zm-5.258-.55c.052-1.643-2.13-2.259-2.945-.833l-11.407 19.953a1.578 1.578 0 0 0 .94 2.3l10.677 3.018a1.577 1.577 0 0 0 2.006-1.467l.729-22.971Zm-9.089-4.543c1.358-.926 3.05.583 2.284 2.037l-10.709 20.335a1.577 1.577 0 0 1-2.445.442l-8.279-7.387a1.577 1.577 0 0 1 .161-2.48l18.988-12.947Zm-3.026-4.343c1.3-1.006.386-3.081-1.234-2.801l-22.646 3.917a1.577 1.577 0 0 0-1.174 2.19l4.474 10.153a1.576 1.576 0 0 0 2.408.611l18.172-14.07Zm-1.712-9.861c1.561.512 1.396 2.773-.224 3.053l-22.648 3.904a1.577 1.577 0 0 1-1.841-1.669l.81-11.066a1.577 1.577 0 0 1 2.064-1.383l21.839 7.161Zm.696-4.181c1.587.43 2.691-1.549 1.491-2.673l-16.774-15.71a1.577 1.577 0 0 0-2.455.383l-5.406 9.69a1.577 1.577 0 0 0 .965 2.29l22.179 6.02Zm7.036-8.716c.721 1.477-1.016 2.934-2.345 1.966l-18.58-13.526a1.576 1.576 0 0 1-.085-2.483l8.503-7.129a1.577 1.577 0 0 1 2.43.517l10.077 20.655Zm8.839 26.413c6.386-.116 11.468-5.387 11.352-11.773-.115-6.385-5.386-11.468-11.772-11.352-6.386.116-11.468 5.386-11.352 11.772.116 6.386 5.386 11.469 11.772 11.353Z"
            clip-rule="evenodd" />
        <circle cx="165.189" cy="218.493" r="69.385" fill="url(#s)" transform="rotate(-1.04 165.189 218.493)" />
        <path fill="#D9D9D9" fill-rule="evenodd"
            d="M166.105 268.946c27.865-.506 50.044-23.505 49.538-51.37-.506-27.865-23.505-50.043-51.37-49.537-27.865.506-50.044 23.505-49.538 51.37.506 27.865 23.505 50.043 51.37 49.537Zm-6.076-67.211c.718 1.479 2.936 1.011 2.995-.632l.825-22.967a1.578 1.578 0 0 0-1.902-1.6l-10.856 2.291a1.577 1.577 0 0 0-1.094 2.231l10.032 20.677Zm10.682-.016c-.826 1.421-3.004.789-2.94-.854l.895-22.964a1.577 1.577 0 0 1 2.016-1.453l10.655 3.095a1.577 1.577 0 0 1 .923 2.307l-11.549 19.869Zm4.339 1.906c-.71 1.483 1.039 2.926 2.36 1.948l18.474-13.672c.824-.61.856-1.831.065-2.484l-8.558-7.062a1.577 1.577 0 0 0-2.426.536l-9.915 20.734Zm7.079 9.173c-1.617.294-2.549-1.773-1.258-2.79l18.052-14.224a1.577 1.577 0 0 1 2.414.59l4.56 10.116a1.577 1.577 0 0 1-1.156 2.199l-22.612 4.109Zm.693 4.974c-1.606.351-1.67 2.617-.087 3.059l22.135 6.183a1.576 1.576 0 0 0 2-1.473l.317-11.091a1.577 1.577 0 0 0-1.913-1.586l-22.452 4.908Zm-2.761 10.246c-1.226-1.095-.168-3.1 1.428-2.707l22.315 5.494a1.576 1.576 0 0 1 1.018 2.267l-5.175 9.815a1.577 1.577 0 0 1-2.445.44l-17.141-15.309Zm-3.249 3.668c-1.27-1.042-3.089.312-2.455 1.828l8.869 21.202a1.577 1.577 0 0 0 2.396.657l8.9-6.626a1.577 1.577 0 0 0 .059-2.484l-17.769-14.577Zm-9.425 4.16c.068-1.643 2.289-2.098 2.998-.616l9.918 20.732a1.578 1.578 0 0 1-1.105 2.226l-10.869 2.23a1.576 1.576 0 0 1-1.893-1.61l.951-22.962Zm-5.259-.55c.052-1.643-2.129-2.26-2.945-.833l-11.406 19.952a1.576 1.576 0 0 0 .94 2.3l10.677 3.019a1.577 1.577 0 0 0 2.005-1.468l.729-22.97Zm-9.088-4.544c1.358-.926 3.05.583 2.284 2.038l-10.709 20.334a1.577 1.577 0 0 1-2.446.442l-8.279-7.387a1.576 1.576 0 0 1 .162-2.479l18.988-12.948Zm-3.026-4.342c1.3-1.007.386-3.081-1.234-2.801l-22.646 3.916a1.577 1.577 0 0 0-1.174 2.19l4.474 10.154a1.577 1.577 0 0 0 2.408.611l18.172-14.07Zm-1.713-9.861c1.562.512 1.397 2.773-.223 3.052l-22.648 3.905a1.577 1.577 0 0 1-1.841-1.669l.81-11.066a1.576 1.576 0 0 1 2.064-1.383l21.838 7.161Zm.698-4.181c1.586.43 2.69-1.55 1.491-2.673l-16.775-15.71a1.576 1.576 0 0 0-2.455.383l-5.405 9.69c-.5.895-.026 2.021.964 2.29l22.18 6.02Zm7.036-8.716c.72 1.477-1.017 2.933-2.346 1.966l-18.58-13.526a1.578 1.578 0 0 1-.085-2.484l8.503-7.128a1.576 1.576 0 0 1 2.43.517l10.078 20.655Zm8.838 26.412c6.386-.116 11.468-5.386 11.352-11.772-.116-6.386-5.386-11.468-11.772-11.352-6.386.116-11.468 5.386-11.352 11.772.116 6.386 5.386 11.468 11.772 11.352Z"
            clip-rule="evenodd" />
        <path fill="url(#t)"
            d="M119.84 180.28c-2.825-4.075-.177-9.723 4.998-14.285 5.174-4.563 17.74-10.311 26.321-12.57 10.726-2.824 21.5-3.019 31.797-.578 10.296 2.442 20.469 7.091 30.539 17.058 10.171 10.067 16.192 23.101 19.283 34.085 3.091 10.984 1.848 29.408-2.132 41.835-3.98 12.427-12.758 21.261-22.619 28.274-4.931 3.507-14.315 7.884-18.782 7.965-4.467.081-8.648 1.471-11.562.21-2.915-1.262-2.724-5.208-2.504-7.578.22-2.37 4.659-4.028 9.862-7.014 5.203-2.986 13.55-6.555 19.221-12.704 9.322-10.106 12.261-19.674 13.957-27.591 1.696-7.917-.41-22.599-4.256-31.73-3.846-9.13-11.591-15.824-18.256-20.96-6.665-5.137-17.764-8.352-27.773-9.485-10.01-1.132-20.726 2.217-27.229 6.015-5.202 3.038-8.914 6.12-10.12 7.281-1.393.463-7.92 5.848-10.745 1.772Z" />
    </g>
    <defs>
        <linearGradient id="b" x1="464.395" x2="465.473" y1="33.784" y2="93.172" gradientUnits="userSpaceOnUse">
            <stop offset=".446" stop-color="#22282B" />
            <stop offset="1" stop-color="#121817" />
        </linearGradient>
        <linearGradient id="c" x1="584.108" x2="796.332" y1="242.429" y2="131.588" gradientUnits="userSpaceOnUse">
            <stop stop-color="#A4A4A2" />
            <stop offset="1" stop-color="#E7FFFE" />
        </linearGradient>
        <linearGradient id="d" x1="110.485" x2="73.739" y1="115.653" y2="118.686" gradientUnits="userSpaceOnUse">
            <stop offset=".576" stop-color="#E5E6DF" />
            <stop offset="1" stop-color="#DCD6CB" />
        </linearGradient>
        <linearGradient id="e" x1="402.23" x2="405.193" y1="69.611" y2="232.806" gradientUnits="userSpaceOnUse">
            <stop stop-color="#D8E1DF" />
            <stop offset=".451" stop-color="#D6DFDD" />
            <stop offset=".85" stop-color="#C6CAC9" />
            <stop offset="1" stop-color="#BCBDBD" />
        </linearGradient>
        <linearGradient id="g" x1="324.897" x2="325.284" y1="72.592" y2="93.888" gradientUnits="userSpaceOnUse">
            <stop stop-color="#D2F5F8" />
            <stop offset="1" stop-color="#E1EBE9" />
        </linearGradient>
        <linearGradient id="h" x1="292.362" x2="67.611" y1="114.19" y2="244.448" gradientUnits="userSpaceOnUse">
            <stop stop-color="#F7F6EF" />
            <stop offset=".515" stop-color="#D4D3CC" />
            <stop offset="1" stop-color="#B4B6A9" />
        </linearGradient>
        <linearGradient id="i" x1="275.601" x2="62.19" y1="170.626" y2="201.577" gradientUnits="userSpaceOnUse">
            <stop stop-color="#E7F1EF" />
            <stop offset="1" stop-color="#ABABAB" />
        </linearGradient>
        <linearGradient id="j" x1="472.541" x2="329.673" y1="33.636" y2="84.335" gradientUnits="userSpaceOnUse">
            <stop />
            <stop offset=".44" stop-color="#E7E7E7" />
            <stop offset="1" stop-color="#8F8F8F" />
        </linearGradient>
        <linearGradient id="k" x1="515.492" x2="513.023" y1="97.258" y2="33.689" gradientUnits="userSpaceOnUse">
            <stop stop-color="#252B2A" />
            <stop offset="1" stop-color="#3C464B" />
        </linearGradient>
        <linearGradient id="l" x1="684.6" x2="734.235" y1="29.522" y2="84.874" gradientUnits="userSpaceOnUse">
            <stop stop-color="#DAE0DF" />
            <stop offset="1" stop-color="#DCE3DF" />
        </linearGradient>
        <linearGradient id="m" x1="692.736" x2="734.728" y1="28.848" y2="83.025" gradientUnits="userSpaceOnUse">
            <stop stop-color="#DFE1DE" />
            <stop offset="1" stop-color="#F5F5F5" />
        </linearGradient>
        <linearGradient id="n" x1="487.557" x2="488.56" y1="35.466" y2="90.69" gradientUnits="userSpaceOnUse">
            <stop stop-color="#101615" />
            <stop offset=".5" stop-color="#000405" />
            <stop offset=".75" stop-color="#000405" />
            <stop offset="1" stop-color="#111716" />
        </linearGradient>
        <linearGradient id="o" x1="487.557" x2="488.56" y1="35.466" y2="90.69" gradientUnits="userSpaceOnUse">
            <stop stop-color="#020809" />
            <stop offset="1" stop-color="#83ABA9" />
        </linearGradient>
        <linearGradient id="p" x1="507.003" x2="508.006" y1="35.113" y2="90.337" gradientUnits="userSpaceOnUse">
            <stop stop-color="#101615" />
            <stop offset=".5" stop-color="#000405" />
            <stop offset=".75" stop-color="#000405" />
            <stop offset="1" stop-color="#111716" />
        </linearGradient>
        <linearGradient id="q" x1="507.003" x2="508.006" y1="35.113" y2="90.337" gradientUnits="userSpaceOnUse">
            <stop stop-color="#020809" />
            <stop offset="1" stop-color="#83ABA9" />
        </linearGradient>
        <linearGradient id="r" x1="673.913" x2="797.248" y1="208.202" y2="167.584" gradientUnits="userSpaceOnUse">
            <stop stop-color="#373938" />
            <stop offset="1" stop-color="#858585" />
        </linearGradient>
        <linearGradient id="t" x1="147.702" x2="271.038" y1="210.924" y2="170.306" gradientUnits="userSpaceOnUse">
            <stop stop-color="#373938" />
            <stop offset="1" stop-color="#858585" />
        </linearGradient>
        <radialGradient id="f" cx="0" cy="0" r="1"
            gradientTransform="matrix(-27.44876 8.3846 -6.44936 -21.11334 326.07 84.137)"
            gradientUnits="userSpaceOnUse">
            <stop offset=".509" stop-color="#E1EAE8" />
            <stop offset=".992" stop-color="#7F8483" />
        </radialGradient>
        <radialGradient id="s" cx="0" cy="0" r="1" gradientTransform="rotate(90 -26.652 191.841) scale(69.3854)"
            gradientUnits="userSpaceOnUse">
            <stop />
            <stop offset="1" stop-color="#3E3E3E" />
        </radialGradient>
        <filter id="a" width="843.169" height="379.808" x="-3.085" y="-5.329" color-interpolation-filters="sRGB"
            filterUnits="userSpaceOnUse">
            <feFlood flood-opacity="0" result="BackgroundImageFix" />
            <feColorMatrix in="SourceAlpha" result="hardAlpha" values="0 0 0 0 0 0 0 0 0 0 0 0 0 0 0 0 0 0 127 0" />
            <feOffset dy="28.513" />
            <feGaussianBlur stdDeviation="25.921" />
            <feComposite in2="hardAlpha" operator="out" />
            <feColorMatrix values="0 0 0 0 0 0 0 0 0 0 0 0 0 0 0 0 0 0 0.25 0" />
            <feBlend in2="BackgroundImageFix" result="effect1_dropShadow_40_860" />
            <feBlend in="SourceGraphic" in2="effect1_dropShadow_40_860" result="shape" />
        </filter>
    </defs>
</svg>