<svg xmlns="http://www.w3.org/2000/svg" width="1244" height="1024" viewBox="0 0 1244 1024" fill="none">
   <g opacity="0.5">
      <path
         d="M432.838 225.205H703.392L592.755 114.618L592.312 114.076H450.037C543.031 105.402 615.77 27.1927 615.77 -68.068C615.77 -169.045 533.914 -251 432.838 -251V114.618H432.739L128.871 -188.462C112.756 -180.084 97.1832 -171.017 82.0539 -161.111C65.4461 -150.318 49.4297 -138.54 34.1032 -126.023L321.807 160.548V789.869L543.918 1011.93V854.97L432.838 743.841V225.205Z"
         fill="url(#paint0_linear_45_577)" />
      <path d="M543.937 225.905L543.395 762.38H654.377L654.968 337.527L543.937 225.905Z"
         fill="url(#paint1_linear_45_577)" />
      <path d="M814.028 337.674L925.059 448.705H765.93L654.998 337.674H814.028Z" fill="url(#paint2_linear_45_577)" />
      <path
         d="M210.698 685.388V207.508L-44.4807 -47.6212C-68.3821 -18.4467 -89.4252 13.1919 -107.019 46.9002L99.6177 253.536V410.596L-151.125 159.804C-163.002 204.009 -169.507 250.333 -170 298.087C-170 298.087 198.229 672.476 210.698 685.388Z"
         fill="url(#paint3_linear_45_577)" />
      <path d="M766.127 448.842L877.207 559.922V763.158H766.127V448.842Z" fill="url(#paint4_linear_45_577)" />
      <path
         d="M1099.35 622.776H988.272V763.179L877.207 763.158C877.207 864.185 959.098 946.16 1060.12 946.16C1161.1 946.16 1243.06 864.205 1243.06 763.179L1099.35 622.776Z"
         fill="url(#paint5_linear_45_577)" />
      <path d="M-168.051 614.113V457.054L543.965 1168.97V1326.03L-168.051 614.113Z" fill="url(#paint6_linear_45_577)" />
   </g>
   <defs>
      <linearGradient id="paint0_linear_45_577" x1="-404.899" y1="-250.97" x2="1212.42" y2="1161.22"
         gradientUnits="userSpaceOnUse">
         <stop offset="0.3" stop-color="white" stop-opacity="0" />
         <stop offset="1" stop-color="#8D95A3" />
      </linearGradient>
      <linearGradient id="paint1_linear_45_577" x1="-404.899" y1="-250.97" x2="1212.42" y2="1161.22"
         gradientUnits="userSpaceOnUse">
         <stop offset="0.3" stop-color="white" stop-opacity="0" />
         <stop offset="1" stop-color="#8D95A3" />
      </linearGradient>
      <linearGradient id="paint2_linear_45_577" x1="-404.899" y1="-250.97" x2="1212.42" y2="1161.22"
         gradientUnits="userSpaceOnUse">
         <stop offset="0.3" stop-color="white" stop-opacity="0" />
         <stop offset="1" stop-color="#8D95A3" />
      </linearGradient>
      <linearGradient id="paint3_linear_45_577" x1="-404.899" y1="-250.97" x2="1212.42" y2="1161.22"
         gradientUnits="userSpaceOnUse">
         <stop offset="0.3" stop-color="white" stop-opacity="0" />
         <stop offset="1" stop-color="#8D95A3" />
      </linearGradient>
      <linearGradient id="paint4_linear_45_577" x1="-404.899" y1="-250.97" x2="1212.42" y2="1161.22"
         gradientUnits="userSpaceOnUse">
         <stop offset="0.3" stop-color="white" stop-opacity="0" />
         <stop offset="1" stop-color="#8D95A3" />
      </linearGradient>
      <linearGradient id="paint5_linear_45_577" x1="-404.899" y1="-250.97" x2="1212.42" y2="1161.22"
         gradientUnits="userSpaceOnUse">
         <stop offset="0.3" stop-color="white" stop-opacity="0" />
         <stop offset="1" stop-color="#8D95A3" />
      </linearGradient>
      <linearGradient id="paint6_linear_45_577" x1="-404.899" y1="-250.97" x2="1212.42" y2="1161.22"
         gradientUnits="userSpaceOnUse">
         <stop offset="0.3" stop-color="white" stop-opacity="0" />
         <stop offset="1" stop-color="#8D95A3" />
      </linearGradient>
   </defs>
</svg>